<svg id="Layer_1" data-name="Layer 1" xmlns="http://www.w3.org/2000/svg" viewBox="0 0 1142.5 335"><defs><style>.cls-1{fill:#ba0001;}</style></defs><title>redwings travel logo</title><path d="M530.08,506A124.68,124.68,0,0,0,481.43,266.5H111.67L215,357H458.69a34.19,34.19,0,0,1,0,68.38H293l103.29,90.46,97.85,85.69h145Z" transform="translate(-111.67 -266.5)"/><path d="M594.44,477.47l139.73,124h145L622.51,373.67a142.32,142.32,0,0,1-28.07,103.8Z" transform="translate(-111.67 -266.5)"/><polygon class="cls-1" points="902.5 0 757.5 0 382.5 335 527.5 335 902.5 0"/><polygon class="cls-1" points="1142.5 0 997.5 0 622.5 335 767.5 335 1142.5 0"/></svg>